<svg width="76" height="76" viewBox="0 0 76 76" fill="none" xmlns="http://www.w3.org/2000/svg">
<path d="M38 76C32.7433 76 27.8033 75.0019 23.18 73.0056C18.5567 71.0119 14.535 68.305 11.115 64.885C7.695 61.465 4.98813 57.4433 2.9944 52.82C0.998134 48.1967 0 43.2567 0 38C0 32.7433 0.998134 27.8033 2.9944 23.18C4.98813 18.5567 7.695 14.535 11.115 11.115C14.535 7.695 18.5567 4.98687 23.18 2.9906C27.8033 0.996866 32.7433 0 38 0C43.2567 0 48.1967 0.996866 52.82 2.9906C57.4433 4.98687 61.465 7.695 64.885 11.115C68.305 14.535 71.0119 18.5567 73.0056 23.18C75.0019 27.8033 76 32.7433 76 38C76 43.2567 75.0019 48.1967 73.0056 52.82C71.0119 57.4433 68.305 61.465 64.885 64.885C61.465 68.305 57.4433 71.0119 52.82 73.0056C48.1967 75.0019 43.2567 76 38 76ZM57 28.5L62.13 26.79L63.65 21.66C61.6233 18.62 59.185 16.0069 56.335 13.8206C53.485 11.6369 50.35 10.0067 46.93 8.93L41.8 12.54V17.86L57 28.5ZM19 28.5L34.2 17.86V12.54L29.07 8.93C25.65 10.0067 22.515 11.6369 19.665 13.8206C16.815 16.0069 14.3767 18.62 12.35 21.66L13.87 26.79L19 28.5ZM15.01 57.76L19.38 57.38L22.23 52.25L16.72 35.72L11.4 33.82L7.6 36.67C7.6 40.7867 8.17 44.5385 9.31 47.9256C10.45 51.3152 12.35 54.5933 15.01 57.76ZM38 68.4C39.6467 68.4 41.2617 68.2733 42.845 68.02C44.4283 67.7667 45.98 67.3867 47.5 66.88L50.16 61.18L47.69 57H28.31L25.84 61.18L28.5 66.88C30.02 67.3867 31.5717 67.7667 33.155 68.02C34.7383 68.2733 36.3533 68.4 38 68.4ZM29.45 49.4H46.55L51.87 34.2L38 24.51L24.32 34.2L29.45 49.4ZM60.99 57.76C63.65 54.5933 65.55 51.3152 66.69 47.9256C67.83 44.5385 68.4 40.7867 68.4 36.67L64.6 34.01L59.28 35.72L53.77 52.25L56.62 57.38L60.99 57.76Z" fill="#0FB916"/>
</svg>
