<svg width="2388" height="1009" viewBox="0 0 2388 1009" fill="none" xmlns="http://www.w3.org/2000/svg">
<path d="M181.47 581.902L164.868 587.941C147.303 600.987 107.981 627.195 91.2197 627.653C74.4584 628.11 62.3397 627.975 58.3755 627.85C54.1586 627.034 48.2149 624.497 58.1757 620.874C68.1366 617.251 79.8724 613.764 84.4952 612.473C88.14 609.581 93.0711 604.419 83.637 606.911C74.2029 609.403 49.5085 611.102 38.3406 611.64C28.7757 611.204 14.0597 608.255 31.7155 599.951C44.9826 593.712 51.0577 591.77 53.3652 591.483L12.4392 585.812C4.25805 584.872 -7.27549 580.765 12.0396 571.859L46.8603 567.419L27.7831 560.259C20.0076 557.213 10.5904 550.534 35.1257 548.189C65.7948 545.258 98.6419 545.061 98.3407 534.596C98.0998 526.224 84.9497 522.626 78.4048 521.873C74.6267 520.115 69.1459 515.842 77.4466 512.823C87.8225 509.049 121.684 495.558 150.419 522.702C151.177 524.775 159.111 528.469 184.779 526.651L196 522.702L196 497.982L312.5 454.982C327.833 448.649 363 436.482 381 438.482C383.667 434.816 392 426.282 404 421.482C410.167 418.649 426.4 412.782 442 411.982C451.333 405.316 473 389.382 485 378.982L602 274.982C611.667 267.149 636.4 253.482 658 261.482C662 256.816 672.6 247.482 683 247.482L679 236.982C670.167 245.316 648.4 256.682 632 235.482C629.167 229.982 619.989 222.475 615 212.482C613.946 210.372 612.5 206.982 612.5 206.982C609.667 205.816 603.9 203.082 603.5 201.482L598.5 186.982C591 188.982 575.9 190.182 575.5 178.982C574.833 168.649 573.5 147.782 573.5 146.982C573.5 146.182 566.5 136.649 563 131.982L558.5 92.4824C555.667 96.4825 549.1 104.582 545.5 104.982C550.333 98.4824 559.9 82.6824 559.5 71.4824C559.667 66.8158 563.8 55.6824 579 48.4824C575.167 49.149 566.6 49.7824 563 46.9824C567.333 45.9824 578.7 40.6824 587.5 31.4824C601 19.4824 632 2.68241 668 1.48242C686.833 0.482436 727.8 5.48244 741 33.4824C746.5 35.9825 758.5 42.6824 762.5 49.4824C759.833 46.4824 753 40.6824 747 41.4824C752 43.6491 762.5 50.5824 764.5 60.9824L775 72.9824L750.5 57.9824L771.5 77.9824C773.5 79.3157 777.9 83.6824 779.5 90.4824C780.833 96.9824 782.5 112.182 778.5 120.982L788.5 140.482C790.5 137.149 797.3 131.682 808.5 136.482L829 110.982C838.333 102.316 858.9 83.9824 866.5 79.9824C880.667 68.3157 916.3 45.2824 945.5 46.4824C957 45.149 981.5 42.2824 987.5 41.4824C995 40.4824 1037 41.4824 1042 41.4824C1047 41.4824 1095 36.9824 1104 29.9824L1118.5 28.4824L1119.5 26.4824L1168.5 20.9824C1182.5 30.9824 1211.3 53.1824 1214.5 61.9824C1223.17 67.1491 1237.9 81.1825 1227.5 95.9824C1219.83 110.149 1198.3 140.883 1173.5 150.482C1148.7 160.082 1130.17 168.482 1124 171.482C1111.67 177.982 1086.4 191.082 1084 191.482C1081 191.982 1115.5 204.982 1120.5 218.482C1128.17 224.149 1143.6 238.782 1144 251.982C1155.33 251.316 1186.3 255.282 1219.5 276.482C1223 277.149 1230.6 279.082 1233 281.482C1237 279.482 1246.7 277.282 1253.5 284.482C1260.3 291.682 1273.67 298.816 1279.5 301.482L1286 299.482L1315 310.982C1321.33 314.482 1332.1 325.082 1324.5 339.482L1325.5 342.482L1404 343.982C1417.83 344.982 1446.9 347.882 1452.5 351.482C1458.1 355.082 1498.83 359.982 1518.5 361.982C1526.83 360.149 1544.1 356.682 1546.5 357.482C1549.5 358.482 1644.5 416.982 1677 410.482C1681.33 410.649 1688.2 413.882 1681 425.482C1673.8 437.082 1664 450.982 1660 456.482C1668.83 460.649 1684.5 471.582 1676.5 481.982L1736 519.482C1745.33 525.316 1773.6 537.782 1812 540.982C1850.4 544.182 1893.67 547.316 1910.5 548.482C1943.33 552.316 2017.2 564.682 2050 583.482C2091 606.982 2253.5 670.982 2262 670.482C2270.5 669.982 2293 673.982 2300.5 682.482C2305.33 680.482 2316.1 676.682 2320.5 677.482C2326 678.482 2354 682.982 2362.5 692.982C2371 702.982 2383.5 712.982 2386.5 727.482L2382.5 737.482L2372.5 737.482C2371.33 743.149 2367.5 756.082 2361.5 762.482L2366 767.482L2366 777.982L2352 776.982C2353.67 781.482 2357.9 790.882 2361.5 792.482L2352 801.982C2338.33 806.649 2308 807.282 2296 772.482C2288 771.482 2270.2 767.182 2263 757.982L2246 757.982L2204 730.482C2190.83 722.982 2158 708.982 2132 712.982L2017 696.482L1731.5 656.482C1700.17 650.149 1637.1 635.382 1635.5 626.982L1623 640.982C1619.5 641.316 1609.7 639.782 1598.5 630.982C1571.83 630.149 1516.7 627.182 1509.5 621.982L1496.5 626.982C1508.67 635.649 1532.4 655.382 1530 664.982C1546 674.816 1582.5 702.782 1600.5 735.982C1611 741.482 1626.8 758.382 1606 781.982C1619.33 797.816 1646.6 829.082 1649 827.482C1652 825.482 1669.5 793.982 1688 786.982L1734.5 732.482C1740.17 727.982 1748.1 717.482 1734.5 711.482C1727.83 702.316 1719.4 678.682 1733 657.482L2016.5 697.482C2023.67 712.482 2025.2 743.683 1974 748.482L1879 748.482L1845.5 769.482C1843.83 770.816 1839.1 773.482 1833.5 773.482C1827.9 773.482 1826.17 770.149 1826 768.482L1801.5 801.482C1801.17 806.149 1799.6 816.482 1796 820.482C1793.67 836.316 1785.6 873.282 1772 894.482C1771.83 905.316 1765.5 930.882 1741.5 946.482C1732.67 980.149 1694.1 1035.88 1610.5 989.482C1526.9 943.082 1499 929.482 1495.5 928.482L1224 703.482C1211.83 689.649 1186.6 658.982 1183 646.982C1180.17 645.649 1172.1 640.382 1162.5 629.982L1015.5 579.982C983.833 570.149 918.9 547.782 912.5 536.982L888.5 536.982L878.5 522.482L840 510.482C835.333 510.316 826.7 506.382 829.5 491.982C813.667 491.316 769.3 482.382 718.5 451.982L686.5 462.482L635 455.482L577.5 479.482C573 483.149 561.7 490.882 552.5 492.482L521.5 501.982L393 553.982C387 558.429 350.1 570.238 250.5 581.902C247.5 585.042 238.4 589.438 226 581.902L181.47 581.902Z" fill="#D9D9D9"/>
<path d="M181.47 581.902L164.868 587.941C147.303 600.987 107.981 627.195 91.2197 627.653C74.4584 628.11 62.3397 627.975 58.3755 627.85C54.1586 627.034 48.2149 624.497 58.1757 620.874C68.1366 617.251 79.8724 613.764 84.4952 612.473C88.14 609.581 93.0711 604.419 83.637 606.911C74.2029 609.403 49.5085 611.102 38.3406 611.64C28.7757 611.204 14.0597 608.255 31.7155 599.951C49.3713 591.648 54.2899 590.955 54.5422 591.646L12.4392 585.812C4.25805 584.872 -7.27549 580.765 12.0396 571.859L46.8603 567.419L27.7831 560.259C20.0076 557.213 10.5904 550.534 35.1257 548.189C65.7948 545.258 98.6419 545.061 98.3407 534.596C98.0998 526.224 84.9497 522.626 78.4048 521.873C74.6267 520.115 69.1459 515.842 77.4466 512.823C87.8225 509.049 121.684 495.558 150.419 522.702C151.177 524.775 159.111 528.469 184.779 526.651L196 522.702L196 497.982L312.5 454.982C327.833 448.649 363 436.482 381 438.482C383.667 434.816 392 426.282 404 421.482C410.167 418.649 426.4 412.782 442 411.982C451.333 405.316 473 389.382 485 378.982L602 274.982C611.667 267.149 636.4 253.482 658 261.482C662 256.816 672.6 247.482 683 247.482L679 236.982C670.167 245.316 648.4 256.682 632 235.482C629.167 229.982 619.989 222.475 615 212.482C613.946 210.372 612.5 206.982 612.5 206.982C609.667 205.816 603.9 203.082 603.5 201.482L598.5 186.982C591 188.982 575.9 190.182 575.5 178.982C574.833 168.649 573.5 147.782 573.5 146.982C573.5 146.182 566.5 136.649 563 131.982L558.5 92.4824C555.667 96.4824 549.1 104.582 545.5 104.982C550.333 98.4824 559.9 82.6824 559.5 71.4824C559.667 66.8157 563.8 55.6824 579 48.4824C575.167 49.1491 566.6 49.7824 563 46.9824C567.333 45.9824 578.7 40.6824 587.5 31.4824C601 19.4824 632 2.68242 668 1.48242C686.833 0.482426 727.8 5.48244 741 33.4824C746.5 35.9824 758.5 42.6825 762.5 49.4824C759.833 46.4824 753 40.6825 747 41.4824C752 43.6491 762.5 50.5824 764.5 60.9824L775 72.9824L750.5 57.9824L771.5 77.9824C773.5 79.3157 777.9 83.6824 779.5 90.4824C780.833 96.9824 782.5 112.182 778.5 120.982L788.5 140.482C790.5 137.149 797.3 131.682 808.5 136.482L829 110.982C838.333 102.316 858.9 83.9824 866.5 79.9824C880.667 68.3157 916.3 45.2824 945.5 46.4824C957 45.1491 981.5 42.2824 987.5 41.4824C995 40.4824 1037 41.4824 1042 41.4824C1047 41.4824 1095 36.9824 1104 29.9824L1118.5 28.4824L1119.5 26.4824L1168.5 20.9824C1182.5 30.9824 1211.3 53.1824 1214.5 61.9824C1223.17 67.1491 1237.9 81.1824 1227.5 95.9824C1219.83 110.149 1198.3 140.882 1173.5 150.482C1148.7 160.082 1130.17 168.482 1124 171.482C1111.67 177.982 1086.4 191.082 1084 191.482C1081 191.982 1115.5 204.982 1120.5 218.482C1128.17 224.149 1143.6 238.782 1144 251.982C1155.33 251.316 1186.3 255.282 1219.5 276.482C1223 277.149 1230.6 279.082 1233 281.482C1237 279.482 1246.7 277.282 1253.5 284.482C1260.3 291.682 1273.67 298.816 1279.5 301.482L1286 299.482L1315 310.982C1321.33 314.482 1332.1 325.082 1324.5 339.482L1325.5 342.482L1404 343.982C1417.83 344.982 1446.9 347.882 1452.5 351.482C1458.1 355.082 1498.83 359.982 1518.5 361.982C1526.83 360.149 1544.1 356.682 1546.5 357.482C1549.5 358.482 1644.5 416.982 1677 410.482C1681.33 410.649 1688.2 413.882 1681 425.482C1673.8 437.082 1664 450.982 1660 456.482C1668.83 460.649 1684.5 471.582 1676.5 481.982L1736 519.482C1745.33 525.316 1773.6 537.782 1812 540.982C1850.4 544.182 1893.67 547.316 1910.5 548.482C1943.33 552.316 2017.2 564.682 2050 583.482C2091 606.982 2253.5 670.982 2262 670.482C2270.5 669.982 2293 673.982 2300.5 682.482C2305.33 680.482 2316.1 676.682 2320.5 677.482C2326 678.482 2354 682.982 2362.5 692.982C2371 702.982 2383.5 712.982 2386.5 727.482L2382.5 737.482L2372.5 737.482C2371.33 743.149 2367.5 756.082 2361.5 762.482L2366 767.482L2366 777.982L2352 776.982C2353.67 781.482 2357.9 790.882 2361.5 792.482L2352 801.982C2338.33 806.649 2308 807.282 2296 772.482C2288 771.482 2270.2 767.182 2263 757.982L2246 757.982L2204 730.482C2190.83 722.982 2158 708.982 2132 712.982L2017 696.482L1731.5 656.482C1700.17 650.149 1637.1 635.382 1635.5 626.982L1623 640.982C1619.5 641.316 1609.7 639.782 1598.5 630.982C1571.83 630.149 1516.7 627.182 1509.5 621.982L1496.5 626.982C1508.67 635.649 1532.4 655.382 1530 664.982C1546 674.816 1582.5 702.782 1600.5 735.982C1611 741.482 1626.8 758.382 1606 781.982C1619.33 797.816 1646.6 829.082 1649 827.482C1652 825.482 1669.5 793.982 1688 786.982L1734.5 732.482C1740.17 727.982 1748.1 717.482 1734.5 711.482C1727.83 702.316 1719.4 678.682 1733 657.482L2016.5 697.482C2023.67 712.482 2025.2 743.683 1974 748.482L1879 748.482L1845.5 769.482C1843.83 770.816 1839.1 773.482 1833.5 773.482C1827.9 773.482 1826.17 770.149 1826 768.482L1801.5 801.482C1801.17 806.149 1799.6 816.482 1796 820.482C1793.67 836.316 1785.6 873.282 1772 894.482C1771.83 905.316 1765.5 930.882 1741.5 946.482C1732.67 980.149 1694.1 1035.88 1610.5 989.482C1526.9 943.082 1499 929.482 1495.5 928.482L1224 703.482C1211.83 689.649 1186.6 658.982 1183 646.982C1180.17 645.649 1172.1 640.382 1162.5 629.982L1015.5 579.982C983.833 570.149 918.9 547.782 912.5 536.982L888.5 536.982L878.5 522.482L840 510.482C835.333 510.316 826.7 506.382 829.5 491.982C813.667 491.316 769.3 482.382 718.5 451.982L686.5 462.482L635 455.482L577.5 479.482C573 483.149 561.7 490.882 552.5 492.482L521.5 501.982L393 553.982C387 558.429 350.1 570.238 250.5 581.902C247.5 585.042 238.4 589.438 226 581.902L181.47 581.902Z" stroke="#D9D9D9" stroke-width="2"/>
</svg>
