<svg width="2392" height="1332" viewBox="0 0 2392 1332" fill="none" xmlns="http://www.w3.org/2000/svg">
<path d="M91.5492 741.71C113.149 740.51 161.549 751.877 183.049 757.71C202.382 755.21 244.249 751.311 257.049 755.711C280.649 728.511 322.215 734.044 340.049 740.211L418.049 704.711H444.049C485.382 690.044 570.949 660.311 582.549 658.711C594.149 657.111 604.716 661.378 608.549 663.711C622.149 659.311 676.882 661.878 702.549 663.711C736.149 648.511 765.882 653.711 776.549 658.211L858.549 627.711C869.049 619.211 894.349 602.111 911.549 601.711C928.749 601.311 1026.05 572.878 1072.55 558.711C1077.05 551.711 1100.05 536.211 1106.05 534.211C1110.85 532.611 1133.05 526.544 1143.55 523.711C1164.75 498.111 1191.38 489.044 1202.05 487.711C1238.55 483.878 1313.55 476.011 1321.55 475.211C1329.55 474.411 1336.22 471.878 1338.55 470.711C1340.15 455.111 1354.55 436.878 1361.55 429.711C1363.05 422.711 1370.55 402.711 1381.55 393.711C1390.35 386.511 1427.22 383.711 1444.55 383.211L1490.55 316.711L1501.55 292.711C1544.75 211.911 1603.88 173.711 1628.05 164.711C1640.05 151.111 1652.72 154.378 1657.55 157.711C1669.88 157.044 1698.45 155.71 1714.05 155.71C1729.65 155.71 1740.88 166.377 1744.55 171.711C1783.75 167.711 1799.55 176.711 1802.55 181.711L1812.55 170.711V166.711C1816.55 161.511 1816.88 157.211 1816.55 155.71C1807.55 119.21 1842.55 -29.7896 1951.05 6.71042C2037.85 35.9104 2053.22 118.21 2050.05 155.71L2052.55 158.21C2052.38 162.544 2051.45 171.71 2049.05 173.71C2046.65 175.71 2038.72 186.877 2035.05 192.21C2039.05 230.21 2022.38 250.044 2013.55 255.21C2012.75 262.41 1995.88 305.877 1987.55 326.71L2003.55 342.21C2013.95 339.411 2018.55 340.377 2019.55 341.21C2019.15 350.01 2023.05 359.21 2025.05 362.71C2039.05 352.71 2044.88 355.21 2046.05 357.71C2104.85 329.31 2135.55 335.544 2143.55 342.21C2173.55 339.41 2192.72 346.377 2198.55 350.21C2230.55 363.41 2230.88 384.71 2227.05 393.71L2252.55 404.21C2260.95 389.41 2270.05 388.377 2273.55 389.71C2315.15 411.71 2310.88 447.21 2303.55 462.21C2312.35 474.21 2314.55 498.21 2314.55 508.71C2346.55 499.71 2359.05 490.71 2372.05 512.71C2382.45 530.31 2376.38 540.71 2372.05 543.71C2376.45 545.31 2380.88 551.043 2382.55 553.71C2384.05 557.376 2387.75 567.41 2390.55 578.21C2393.35 589.01 2382.38 594.71 2376.55 596.21C2377.75 615.41 2374.05 628.876 2372.05 633.21L2355.55 643.71C2347.05 663.21 2328.55 665.21 2304.55 666.71C2285.35 667.91 2271.22 658.543 2266.55 653.71L2214.55 711.71L2193.55 716.21C2194.38 720.043 2185.95 729.41 2145.55 736.21C2095.05 744.71 2010.55 617.21 1992.55 594.21C1978.15 575.81 1976.88 569.543 1978.05 568.71C1952.55 548.21 1955.55 529.21 1950.55 529.21C1946.55 529.21 1921.88 535.876 1910.05 539.21C1886.85 570.41 1863.72 581.543 1855.05 583.21C1822.65 628.41 1670.55 739.376 1598.55 789.21C1603.35 839.21 1528.22 904.377 1490.05 930.71C1466.85 987.11 1358.38 1111.21 1307.05 1166.21C1288.65 1191.01 1248.05 1217.88 1230.05 1228.21L1155.55 1299.21C1096.75 1346.81 1050.05 1330.04 1034.05 1315.71C1010.05 1340.91 898.049 1270.54 845.049 1232.21L794.549 1216.21C768.549 1221.81 704.716 1209.21 676.049 1202.21C556.049 1220.21 509.382 1212.38 501.049 1206.21C492.649 1176.61 507.215 1161.54 515.549 1157.71V1140.21L526.049 1136.21L538.049 1140.21L573.049 1120.21V1109.71L588.049 1105.21L594.049 1109.71H620.549L630.049 1099.71H639.549L646.549 1109.71C670.949 1123.71 732.716 1080.54 760.549 1057.21V1042.71L771.049 1037.71L782.549 1047.21C789.216 1042.38 807.449 1033.71 827.049 1037.71C846.649 1041.71 859.549 1089.38 863.549 1112.71L935.049 1136.21C998.649 1118.61 1047.55 1138.21 1064.05 1150.21L1128.55 1050.71L1122.55 1012.21L1147.55 980.21C1159.15 925.81 1187.38 872.543 1200.05 852.71H1157.55C1138.55 866.71 1050.55 866.21 1003.55 869.71C965.949 872.51 957.549 859.543 958.049 852.71L914.549 803.21C880.149 816.81 813.549 815.876 784.549 813.71C766.949 832.11 687.549 817.71 650.049 808.21C616.049 840.21 495.049 828.71 438.049 832.21C392.449 835.01 356.715 842.376 344.549 845.71C318.215 862.21 256.949 890.71 222.549 872.71C188.149 854.71 149.215 859.543 134.049 864.21C125.882 867.043 101.849 872.71 71.0492 872.71C32.5492 872.71 -0.450785 829.21 1.04922 796.21C2.54922 763.21 64.5492 743.21 91.5492 741.71Z" fill="black" stroke="black"/>
<circle cx="2161.5" cy="513.5" r="152.5" fill="#BFBFBF"/>
</svg>
