
<svg xmlns="http://www.w3.org/2000/svg" xmlns:xlink="http://www.w3.org/1999/xlink" fill="none" style="fill: none;" viewBox="0 0 236 488" original_string_length="11180"><path d="M232.837 225.103C228.384 219.356 224.615 213.111 221.607 206.493C221.495 206.162 221.314 205.859 221.077 205.603C218.237 203.093 216.797 199.703 215.377 196.333C211.087 186.203 207.377 175.823 203.457 165.563C200.381 157.53 196.113 150.005 190.797 143.243C189.127 141.123 187.497 138.893 185.197 137.443C183.117 136.07 181.402 134.214 180.197 132.033C177.447 127.373 174.617 122.703 170.697 118.963C167.937 116.333 166.107 113.083 164.157 110.023C161.523 106.045 159.109 101.925 156.927 97.6827C155.757 95.2827 155.297 92.9127 152.047 92.8827C151.767 92.8827 151.487 92.5027 151.207 92.3027C144.137 87.3027 137.207 82.1727 128.897 79.3027C128.113 79.0157 127.383 78.6 126.737 78.0727C125.145 76.8328 123.268 76.0112 121.277 75.6827C119.3 75.3164 117.366 74.7467 115.507 73.9827C114.227 73.4827 112.797 72.6827 111.557 72.8727C107.867 73.4227 105.127 71.3927 102.307 69.7827C100.757 68.8927 98.4568 67.9427 98.3068 65.9627C98.0297 61.3822 98.0664 56.7881 98.4168 52.2127C102.627 55.4427 104.827 54.4827 105.687 49.5527C106.427 45.3027 104.777 41.2027 105.067 36.9927C105.127 36.1727 104.527 35.1327 103.507 35.5927C101.507 36.4927 101.947 35.2927 102.137 34.2027C102.342 33.5548 102.456 32.8818 102.477 32.2027C101.847 27.3127 104.367 22.6627 103.327 17.6727C102.735 14.6094 101.356 11.7526 99.3269 9.38268C98.8069 8.78268 98.0868 8.38268 97.7768 7.55268C96.2768 3.62268 92.1668 3.37268 89.1668 1.55268C88.906 1.45352 88.6177 1.45352 88.3568 1.55268C87.3568 1.87268 86.4168 1.30268 85.5268 1.19268C83.5868 0.97268 81.7968 -0.39732 79.7768 0.30268C78.7323 0.63254 77.6114 0.63254 76.5669 0.30268C73.5669 -0.46732 71.3969 0.23268 70.4869 2.39268C69.8269 3.97268 68.8369 4.34268 67.2669 4.26268C66.0666 4.09911 64.8467 4.35645 63.8148 4.99092C62.7829 5.62539 62.0026 6.59779 61.6068 7.74268C61.4232 8.39965 61.0796 9.00088 60.6068 9.49268C58.2568 11.3027 57.4568 13.8427 57.2868 16.5827C57.0668 20.1827 56.2869 23.7327 56.9669 27.4327C57.4469 30.0027 56.9668 32.7427 56.6168 35.5127C56.3808 35.4074 56.1534 35.2837 55.9369 35.1427C55.3569 34.6427 55.2568 33.3527 54.1968 33.7027C53.3368 33.9927 53.3168 35.0727 53.1968 35.8627C52.5992 40.1858 52.3451 44.5494 52.4369 48.9127C52.5169 51.5827 54.4369 52.8327 56.8769 51.7227C58.7169 50.9027 58.6869 51.8527 58.6769 53.0527C58.6578 56.0239 59.0893 58.9809 59.9569 61.8227C60.221 62.8297 60.3752 63.8624 60.4168 64.9027C60.7068 69.1927 61.1068 68.3627 57.4168 69.7327C53.0768 71.3327 49.4168 73.6427 48.4968 78.6627C48.3268 79.5727 47.5568 79.7927 46.8968 80.1427C42.2768 82.5227 37.5168 84.6127 32.8968 86.9127C22.2368 92.1727 13.8969 99.6227 11.5469 111.983C9.93685 120.613 11.7668 129.173 13.6168 137.483C14.8768 143.153 15.1269 148.773 15.5169 154.483C15.5551 155.382 15.4262 156.28 15.1369 157.133C14.3794 159.588 14.0579 162.157 14.1869 164.723C14.5713 169.304 13.523 173.893 11.1869 177.853C10.4164 179.329 9.88639 180.919 9.61685 182.563C8.26685 188.463 7.94685 194.483 7.55685 200.493C7.05685 208.303 6.73685 216.123 4.32685 223.673C3.25685 227.013 1.90685 230.123 1.82685 233.943C1.71685 238.943 1.82685 244.153 0.216852 249.083C0.0218002 250.1 -0.0420555 251.139 0.0268496 252.173C-0.0557832 253.179 0.156487 254.188 0.637735 255.076C1.11898 255.964 1.84839 256.692 2.73686 257.173C4.73686 258.353 6.73685 259.413 7.60685 261.823C8.14964 262.806 8.98493 263.596 9.99685 264.083C15.4569 267.653 24.3369 264.403 26.5769 258.083C27.0185 257.065 27.1942 255.953 27.0875 254.849C26.9808 253.745 26.5952 252.686 25.9669 251.773C25.4333 250.883 25.0926 249.892 24.9669 248.863C23.8769 243.103 22.9669 237.283 18.8269 232.663C17.5569 231.233 17.3669 226.443 18.3569 224.773C21.0369 220.253 23.8369 215.773 26.3569 211.173C31.4969 201.813 35.3568 191.973 36.0868 181.173C36.7168 172.173 38.9069 163.393 40.2369 154.483C41.5369 155.843 42.7369 160.483 41.8269 162.123C40.3369 164.893 41.0069 167.123 42.8269 169.373C43.2065 169.736 43.4678 170.205 43.5767 170.718C43.6855 171.232 43.6368 171.767 43.4369 172.253C43.0571 172.981 42.8463 173.785 42.8204 174.606C42.7944 175.426 42.9538 176.242 43.2868 176.993C43.5525 177.679 43.6323 178.423 43.5182 179.15C43.404 179.877 43.1 180.561 42.6368 181.133C42.1986 181.667 41.912 182.31 41.8068 182.993C41.1768 190.313 41.2668 197.573 44.8068 204.273C46.1727 206.702 46.63 209.537 46.0969 212.273C45.6357 214.657 45.5984 217.105 45.9869 219.503C46.1739 220.449 46.0179 221.431 45.5469 222.273C43.8789 225.436 43.5198 229.127 44.5469 232.553C44.9662 233.857 44.9415 235.264 44.4768 236.553C43.0968 239.873 45.0968 243.093 44.6668 246.373C44.6613 246.478 44.6801 246.584 44.7217 246.681C44.7633 246.778 44.8267 246.864 44.9069 246.933C46.2969 247.933 46.0268 249.333 45.9768 250.703C46.004 251.872 46.2028 253.031 46.5669 254.143C47.1769 256.393 47.1868 258.823 49.1368 260.553C49.4168 260.803 49.3569 261.473 49.3769 261.953C49.7569 270.623 52.2468 278.953 53.5368 287.473C53.9168 289.993 54.6669 292.473 54.9669 295.013C55.7031 300.643 57.0064 306.184 58.8568 311.553C60.2768 315.873 62.1369 320.083 65.5969 323.083C67.9669 325.133 68.5969 327.233 68.4569 330.213C68.1469 336.923 68.3268 336.943 75.0368 338.133C76.4668 338.393 78.0369 338.573 78.6269 340.193C79.2169 341.813 80.1768 341.523 81.2768 341.113C84.2768 340.033 84.2769 340.013 85.8269 342.843C86.5168 343.964 87.0962 345.149 87.5568 346.383C88.9868 350.873 90.8669 355.193 92.3769 359.633C92.9369 361.283 92.2968 363.353 93.1368 365.123C93.1368 365.223 93.0769 365.393 93.0469 365.523C92.861 366.194 92.845 366.901 93.0004 367.58C93.1557 368.259 93.4775 368.889 93.9369 369.413C94.9066 370.677 95.4273 372.229 95.4168 373.823C95.8268 380.223 97.0669 386.433 100.207 392.153C103.587 398.513 107.526 404.56 111.977 410.223C114.897 413.853 117.647 417.553 119.247 422.013C119.811 423.742 120.851 425.277 122.247 426.443C125.077 428.693 126.427 432.183 129.197 434.443C131.117 436.013 131.707 438.443 133.617 440.263C138.772 445.172 142.351 451.504 143.897 458.453C144.077 459.046 144.077 459.679 143.897 460.273C143.487 461.453 143.537 462.513 145.077 462.803C145.917 462.953 145.837 463.503 145.617 464.043C144.557 466.663 144.147 469.523 142.617 471.983C141.87 473.309 141.202 474.678 140.617 476.083C140.287 476.813 140.327 477.253 140.787 477.443C140.637 477.973 140.397 478.693 140.017 479.663C138.227 484.283 144.017 487.303 156.347 487.583C168.687 484.753 171.517 481.713 171.917 477.583C171.8 477.034 171.746 476.474 171.757 475.913C172.523 475.356 173.046 474.525 173.217 473.593C173.602 472.544 173.702 471.412 173.507 470.313C171.867 465.313 170.507 460.163 167.927 455.483C167.329 454.651 166.82 453.76 166.407 452.823C165.372 449.491 163.375 446.541 160.667 444.343C155.577 440.033 152.817 434.443 151.667 427.973C151.607 427.643 151.577 427.183 151.357 426.973C149.147 425.243 149.467 422.493 148.577 420.243C147.347 417.153 147.467 413.663 145.897 410.693C144.213 407.589 143.124 404.197 142.687 400.693C141.748 393.32 139.224 386.237 135.287 379.933C132.927 375.933 130.287 372.123 127.647 368.303C125.707 365.463 123.707 362.593 124.407 358.823C124.527 358.213 124.157 357.623 124.037 357.023C123.577 354.883 122.037 353.143 121.977 350.863C121.934 347.805 121.317 344.782 120.157 341.953C118.826 338.382 117.891 334.677 117.367 330.903C117.097 329.323 116.437 327.703 117.907 326.263C118.297 325.883 118.117 325.193 117.977 324.653C116.811 319.596 116.102 314.446 115.857 309.263C115.567 305.173 114.987 301.103 114.537 297.023C114.918 297.251 115.207 297.605 115.357 298.023C116.827 301.073 117.987 304.343 119.857 307.133C123.557 312.663 124.207 319.133 126.077 325.263C126.497 326.633 126.657 327.843 128.027 328.663C128.727 329.083 129.777 329.933 128.287 330.843C127.138 331.564 126.183 332.555 125.505 333.73C124.827 334.905 124.447 336.227 124.397 337.583C124.119 340.703 124.595 343.845 125.787 346.743C127.577 351.403 129.307 356.053 129.957 361.053C130.361 363.961 131.803 366.624 134.017 368.553C135.579 369.847 136.839 371.469 137.707 373.303C138.679 375.294 139.417 377.391 139.907 379.553C141.297 386.443 145.047 392.033 149.367 397.323C151.497 400.178 154.418 402.348 157.767 403.563C159.327 404.197 161.054 404.292 162.674 403.831C164.294 403.371 165.713 402.382 166.707 401.023C168.857 398.358 170.079 395.065 170.187 391.643C170.718 383.792 169.23 375.936 165.867 368.823C165.357 367.703 165.337 367.033 166.367 366.223C167.886 364.9 169.118 363.28 169.987 361.463C172.797 356.393 173.717 350.773 174.657 345.183C174.831 344.047 174.775 342.888 174.492 341.775C174.208 340.661 173.703 339.617 173.007 338.703C172.727 338.313 172.177 337.913 172.377 337.453C173.707 334.363 172.017 330.803 173.937 327.813C174.007 327.655 174.043 327.485 174.043 327.313C174.043 327.14 174.007 326.97 173.937 326.813C172.127 322.713 172.597 318.393 172.747 314.113C172.957 308.113 171.177 302.463 169.567 296.843C168.837 294.293 167.997 291.843 168.107 289.203C168.197 288.232 168.071 287.254 167.739 286.338C167.407 285.422 166.877 284.59 166.187 283.903C165.849 283.605 165.594 283.224 165.447 282.798C165.3 282.372 165.265 281.916 165.347 281.473C165.777 278.803 164.757 276.583 163.177 274.553C162.03 273.32 161.366 271.715 161.307 270.033C161.407 267.473 161.047 265.193 158.557 263.793C158.328 263.636 158.17 263.395 158.117 263.123C157.597 260.273 156.217 257.603 156.117 254.673C156.05 253.914 156.273 253.157 156.743 252.558C157.213 251.958 157.894 251.559 158.647 251.443C160.377 251.263 160.477 250.383 160.097 249.233C158.889 245.165 158.548 240.89 159.097 236.683C160.097 226.683 156.147 218.213 151.157 210.143C149.658 207.922 148.86 205.302 148.867 202.623C148.867 200.413 149.047 198.203 149.127 195.983C149.347 190.253 150.077 184.523 149.357 178.773C148.357 170.773 147.147 162.823 143.987 155.373C142.556 152.151 141.709 148.701 141.487 145.183C141.36 143.319 141.112 141.465 140.747 139.633C140.227 136.733 139.597 133.853 138.897 130.353C140.587 132.193 142.587 131.093 144.047 132.093C147.677 134.593 152.047 135.933 155.167 139.233C155.792 139.784 156.519 140.209 157.307 140.483C162.017 142.483 165.307 146.313 169.307 149.333C169.834 149.799 170.186 150.43 170.307 151.123C172.777 160.483 177.597 168.563 183.747 175.933C187.914 180.933 192.017 185.989 196.057 191.103C199.693 195.665 202.429 200.878 204.117 206.463C204.497 207.723 205.117 209.113 204.897 210.293C204.057 214.383 205.617 218.293 205.387 222.393C204.807 232.463 209.647 241.243 213.557 250.163C214.017 251.223 214.717 252.383 216.097 252.333C216.766 252.297 217.406 252.047 217.922 251.621C218.439 251.194 218.805 250.613 218.967 249.963C219.087 249.542 219.342 249.173 219.692 248.911C220.043 248.649 220.469 248.509 220.907 248.513C222.047 248.363 223.437 248.393 224.007 247.173C224.262 246.562 224.698 246.043 225.255 245.686C225.812 245.329 226.465 245.15 227.127 245.173C230.587 245.173 232.017 242.273 233.637 240.173C236.137 236.953 235.377 228.423 232.837 225.103Z" style="fill: black"/></svg>