<svg xmlns="http://www.w3.org/2000/svg" xmlns:xlink="http://www.w3.org/1999/xlink" preserveAspectRatio="xMidYMid meet" version="1.0" viewBox="0.0 0.0 2176.2 3889.8" zoomAndPan="magnify" style="fill: black;" original_string_length="16419"><defs><clipPath id="__id117_srhm2uud2s"><path d="M 1642 3063 L 2176.160156 3063 L 2176.160156 3589 L 1642 3589 Z M 1642 3063"/></clipPath><clipPath id="__id118_srhm2uud2s"><path d="M 0 0 L 1910 0 L 1910 3889.75 L 0 3889.75 Z M 0 0"/></clipPath></defs><g><g clip-path="url(#__id117_srhm2uud2s)" id="__id119_srhm2uud2s"><path d="M 1909.402344 3063.914062 C 1762.304688 3063.914062 1642.683594 3181.667969 1642.683594 3326.359375 C 1642.683594 3471.054688 1762.304688 3588.808594 1909.402344 3588.808594 C 2056.5 3588.808594 2176.164062 3471.054688 2176.164062 3326.359375 C 2176.164062 3181.667969 2056.5 3063.914062 1909.402344 3063.914062 Z M 1667.140625 3247.582031 C 1666.929688 3248.300781 1666.648438 3248.984375 1666.421875 3249.703125 C 1666.675781 3248.804688 1666.863281 3247.90625 1667.140625 3247.042969 Z M 1664.566406 3256.277344 C 1663.269531 3260.765625 1662.082031 3265.328125 1661.039062 3269.925781 C 1660.71875 3270.71875 1660.464844 3271.183594 1660.105469 3272.046875 C 1661.320312 3266.65625 1662.976562 3261.484375 1664.566406 3256.277344 Z M 1662.402344 3389.476562 C 1662.617188 3390.339844 1662.871094 3391.199219 1663.082031 3392.097656 C 1662.804688 3390.949219 1662.296875 3389.945312 1662.015625 3388.828125 C 1662.148438 3389.007812 1662.296875 3389.261719 1662.402344 3389.476562 Z M 2163.226562 3350.5 C 2163.441406 3347.988281 2163.441406 3345.472656 2163.628906 3342.957031 C 2163.800781 3342.8125 2164.015625 3342.707031 2164.203125 3342.5625 C 2164.015625 3345.257812 2163.519531 3347.84375 2163.226562 3350.5 Z M 2154.46875 3396.984375 C 2154.683594 3396.335938 2154.789062 3395.691406 2154.964844 3395.042969 C 2154.789062 3395.691406 2154.683594 3396.335938 2154.46875 3396.984375 Z M 2159.847656 3374.28125 C 2160.863281 3369.214844 2161.585938 3364.078125 2162.226562 3358.90625 C 2161.546875 3364.078125 2160.890625 3369.214844 2159.847656 3374.28125 Z M 2164.457031 3327.222656 C 2164.457031 3327.152344 2164.457031 3327.078125 2164.457031 3327.007812 C 2164.457031 3310.195312 2162.734375 3293.816406 2159.609375 3277.867188 C 2162.761719 3293.601562 2164.816406 3309.765625 2164.816406 3326.359375 C 2164.816406 3326.574219 2164.816406 3326.71875 2164.816406 3326.933594 C 2164.667969 3327.042969 2164.523438 3327.152344 2164.457031 3327.222656 Z M 2147.351562 3235.765625 C 2148.5 3238.746094 2149.582031 3241.800781 2150.664062 3244.855469 C 2149.621094 3241.800781 2148.5 3238.78125 2147.351562 3235.765625 Z M 2154.617188 3257.5 C 2156.257812 3263.136719 2157.765625 3268.8125 2158.996094 3274.597656 C 2157.765625 3268.8125 2156.191406 3263.136719 2154.617188 3257.5" style="fill: #bfbfbf;"/></g><g clip-path="url(#__id118_srhm2uud2s)" id="__id120_srhm2uud2s"><path d="M 1907.355469 1512.269531 C 1903.117188 1489.183594 1896.402344 1460.570312 1886.058594 1423.488281 C 1875.746094 1386.40625 1859.976562 1374.855469 1861.164062 1360.871094 C 1862.347656 1346.886719 1861.773438 1337.773438 1852.648438 1309.804688 C 1843.523438 1281.835938 1813.132812 1200.367188 1796.105469 1157.796875 C 1779.082031 1115.246094 1766.292969 1101.238281 1768.769531 1083.628906 C 1771.175781 1065.992188 1777.210938 1047.761719 1768.769531 1030.101562 C 1760.257812 1012.492188 1759.035156 991.207031 1754.152344 969.324219 C 1749.265625 947.441406 1710.972656 832.515625 1686.6875 811.230469 C 1662.332031 789.945312 1638.046875 766.84375 1620.988281 758.347656 C 1603.996094 749.832031 1522.523438 687.808594 1500 673.230469 C 1477.515625 658.625 1416.699219 611.804688 1389.972656 602.070312 C 1363.210938 592.355469 1327.96875 572.910156 1326.097656 570.472656 C 1324.304688 568.039062 1316.402344 558.304688 1316.402344 558.304688 C 1316.402344 558.304688 1321.863281 531.53125 1327.320312 521.816406 C 1332.820312 512.082031 1342.554688 487.789062 1342.554688 487.789062 C 1342.554688 487.789062 1352.25 490.820312 1365.613281 478.027344 C 1379.015625 465.285156 1410.015625 428.203125 1417.917969 400.234375 C 1425.820312 372.265625 1430.707031 335.160156 1427.042969 327.261719 C 1423.378906 319.363281 1420.363281 312.65625 1415.476562 315.710938 C 1415.476562 315.710938 1433.148438 266.480469 1436.167969 197.132812 C 1439.183594 127.835938 1408.796875 119.9375 1386.882812 87.699219 C 1365.042969 55.484375 1335.835938 37.25 1322.472656 30.570312 C 1309.074219 23.863281 1251.308594 -2.289062 1188.089844 0.167969 C 1124.867188 2.578125 1084.128906 19.640625 1064.660156 29.351562 C 1045.226562 39.066406 992.3125 87.101562 974.710938 144.851562 C 957.035156 202.648438 970.433594 205.035156 970.433594 232.429688 C 970.433594 259.800781 963.753906 280.441406 960.125 287.121094 C 956.460938 293.828125 954.019531 304.78125 955.238281 344.894531 C 956.460938 385.035156 964.363281 401.453125 968.601562 408.730469 C 972.878906 416.03125 978.949219 429.417969 985.019531 423.332031 C 985.019531 423.332031 983.835938 471.347656 986.851562 486.546875 C 989.871094 501.773438 994.144531 520.601562 994.144531 534.585938 C 994.144531 548.566406 992.925781 559.519531 988.074219 563.195312 C 983.1875 566.824219 971.691406 576.535156 927.257812 582.644531 C 882.894531 588.683594 845.785156 607.558594 820.890625 618.488281 C 795.960938 629.441406 778.933594 647.074219 717.507812 649.507812 C 656.082031 651.941406 640.273438 656.191406 611.105469 681.128906 C 581.933594 706.042969 552.121094 727.328125 539.332031 746.777344 C 526.617188 766.246094 479.199219 835.570312 453.011719 895.15625 C 426.894531 954.695312 416.550781 1028.910156 405.632812 1051.414062 C 394.671875 1073.890625 375.203125 1066.589844 391.011719 1097.613281 C 406.816406 1128.609375 406.203125 1127.992188 398.304688 1139.5625 C 390.398438 1151.113281 320.457031 1205.234375 287.660156 1304.9375 C 254.828125 1404.660156 229.898438 1499.492188 211.039062 1533.539062 C 192.179688 1567.589844 178.816406 1595.554688 161.789062 1610.753906 C 144.761719 1625.964844 125.292969 1625.371094 114.949219 1639.34375 C 104.675781 1653.320312 104.027344 1661.222656 100.398438 1665.480469 C 96.734375 1669.738281 91.273438 1670.347656 88.222656 1681.304688 C 85.203125 1692.242188 81.539062 1703.789062 74.859375 1708.046875 C 68.175781 1712.304688 60.273438 1723.835938 62.070312 1732.957031 C 63.9375 1742.082031 67.601562 1752.429688 61.820312 1762.164062 C 56 1771.898438 57.902344 1793.144531 61.820312 1801.660156 C 65.734375 1810.191406 69.363281 1829.644531 70.621094 1841.191406 C 71.804688 1852.722656 79.097656 1862.460938 98.566406 1877.078125 C 118 1891.644531 142.320312 1898.957031 149.648438 1899.585938 C 156.90625 1900.15625 180.039062 1903.804688 185.5 1899.585938 C 190.960938 1895.328125 189.164062 1889.832031 188.550781 1885.574219 C 187.941406 1881.316406 187.332031 1866.714844 193.402344 1862.460938 C 199.507812 1858.203125 196.457031 1845.917969 201.304688 1833.179688 C 201.304688 1833.179688 204.359375 1829.644531 223.21875 1804.714844 C 242.039062 1779.785156 242.652344 1759.722656 241.46875 1735.402344 C 240.246094 1711.082031 234.136719 1689.816406 249.332031 1666.089844 C 264.527344 1642.378906 317.441406 1556.652344 357.566406 1517.121094 C 397.691406 1477.609375 426.894531 1461.8125 470.074219 1407.691406 C 513.253906 1353.570312 521.730469 1328.035156 540.554688 1293.386719 C 559.449219 1258.738281 558.226562 1252.03125 583.730469 1223.46875 C 609.308594 1194.878906 614.121094 1177.863281 636.035156 1176.648438 C 657.949219 1175.429688 671.921875 1139.5625 679.214844 1174.832031 C 686.46875 1210.078125 695.019531 1246.566406 686.46875 1289.113281 C 677.992188 1331.6875 679.214844 1373.636719 658.523438 1405.851562 C 637.832031 1438.09375 608.085938 1489.757812 595.296875 1518.953125 C 582.546875 1548.140625 574.609375 1548.140625 570.980469 1599.222656 C 567.316406 1650.265625 570.367188 1749.988281 561.246094 1783.414062 C 552.121094 1816.875 538.757812 1851.519531 538.109375 1905.027344 C 537.539062 1958.550781 539.980469 2022.996094 544.867188 2044.261719 C 549.679688 2065.5625 544.867188 2077.703125 558.226562 2080.148438 C 571.589844 2082.554688 574.609375 2094.121094 574.609375 2112.367188 C 574.609375 2130.582031 577.660156 2149.441406 601.980469 2177.425781 C 626.300781 2205.410156 625.691406 2221.179688 636.035156 2241.871094 C 646.378906 2262.527344 668.292969 2308.753906 670.664062 2312.996094 C 673.105469 2317.269531 677.992188 2320.324219 679.214844 2356.75 C 680.433594 2393.246094 672.53125 2405.386719 683.453125 2410.308594 C 694.410156 2415.15625 725.410156 2413.363281 727.851562 2427.335938 C 730.296875 2441.308594 737.550781 2441.882812 725.410156 2471.699219 C 713.269531 2501.515625 667.035156 2591.464844 650.046875 2622.464844 C 633.015625 2653.464844 615.992188 2675.378906 611.753906 2705.195312 C 607.476562 2734.9375 604.425781 2761.734375 572.164062 2786.667969 C 539.980469 2811.597656 445.144531 2869.324219 414.109375 2940.484375 C 383.070312 3011.609375 363.671875 3035.320312 353.9375 3052.347656 C 344.203125 3069.339844 312.589844 3127.136719 296.140625 3133.242188 C 279.722656 3139.277344 240.820312 3199.484375 218.941406 3217.085938 C 197.066406 3234.722656 172.710938 3239 153.277344 3239 C 133.84375 3239 57.21875 3242.015625 43.246094 3252.972656 C 29.238281 3263.929688 -10.277344 3293.742188 2.511719 3381.25 C 15.265625 3468.828125 46.875 3491.960938 33.476562 3555.1875 C 20.113281 3618.371094 -8.445312 3690.757812 10.988281 3743.023438 C 30.460938 3795.289062 73.027344 3852.476562 117.425781 3856.714844 C 161.789062 3860.957031 201.914062 3864.621094 212.261719 3808.078125 C 222.605469 3751.535156 234.710938 3661.550781 235.359375 3637.230469 C 235.96875 3612.914062 237.191406 3580.078125 242.652344 3578.820312 C 248.148438 3577.671875 263.34375 3521.128906 263.34375 3539.308594 C 263.34375 3557.554688 268.191406 3598.328125 291.898438 3578.820312 C 315.609375 3559.421875 305.261719 3550.265625 299.191406 3541.820312 C 293.121094 3533.273438 284.609375 3522.351562 284.609375 3522.351562 C 284.609375 3522.351562 270.023438 3520.484375 301.023438 3521.707031 C 332.027344 3522.925781 388.566406 3508.34375 340.539062 3513.195312 C 292.511719 3518.078125 286.441406 3508.199219 283.386719 3506.40625 C 283.386719 3506.40625 268.550781 3507.730469 296.644531 3496.199219 C 324.734375 3484.632812 330.839844 3481.007812 319.273438 3465.164062 C 307.707031 3449.359375 295.566406 3455.464844 291.898438 3456.078125 C 288.238281 3456.648438 262.730469 3457.261719 286.441406 3431.144531 C 310.148438 3405.03125 336.300781 3387.964844 406.203125 3316.191406 C 476.109375 3244.457031 491.914062 3237.777344 507.148438 3224.339844 C 522.304688 3211.015625 568.539062 3160.542969 605.644531 3132.597656 C 642.71875 3104.648438 675.550781 3066.929688 705.941406 3026.769531 C 736.328125 2986.644531 763.703125 2967.246094 797.757812 2936.820312 C 831.8125 2906.394531 850.636719 2894.253906 867.695312 2845.003906 C 884.691406 2795.753906 912.0625 2753.1875 912.0625 2753.1875 C 912.0625 2753.1875 910.265625 2839.507812 899.917969 2872.949219 C 889.574219 2906.394531 901.140625 2997.023438 925.425781 3083.382812 C 949.777344 3169.703125 963.753906 3203.113281 964.363281 3214.679688 C 964.941406 3226.210938 1022.128906 3361.777344 1037.289062 3406.214844 C 1052.515625 3450.582031 1077.449219 3500.441406 1075.003906 3518.078125 C 1072.597656 3535.714844 1079.890625 3537.546875 1081.683594 3557.554688 C 1083.554688 3577.671875 1083.554688 3583.097656 1081.683594 3606.230469 C 1079.890625 3629.328125 1088.40625 3665.824219 1089.589844 3691.941406 C 1090.8125 3718.09375 1098.140625 3801.972656 1112.6875 3837.894531 C 1127.308594 3873.742188 1136.433594 3899.894531 1178.390625 3885.921875 C 1220.34375 3871.910156 1343.773438 3821.476562 1350.457031 3791.660156 C 1357.136719 3761.882812 1349.234375 3733.289062 1338.277344 3709.613281 C 1327.320312 3685.871094 1323.082031 3658.496094 1320.640625 3642.117188 C 1318.199219 3625.664062 1306.632812 3608.636719 1302.394531 3595.273438 C 1298.152344 3581.914062 1303.039062 3567.328125 1298.152344 3556.945312 C 1293.269531 3546.636719 1273.222656 3526.558594 1268.984375 3516.820312 C 1264.710938 3507.121094 1244.628906 3472.492188 1239.167969 3459.058594 C 1233.707031 3445.695312 1232.488281 3420.765625 1228.210938 3411.640625 C 1223.972656 3402.515625 1217.292969 3400.144531 1216.683594 3380.101562 C 1216.070312 3359.984375 1213.664062 3361.207031 1213.664062 3337.496094 C 1213.664062 3313.789062 1216.683594 3308.292969 1210.574219 3290.65625 C 1204.539062 3273.050781 1202.671875 3226.855469 1199.65625 3206.164062 C 1196.601562 3185.472656 1200.875 3151.421875 1197.210938 3146.570312 C 1193.585938 3141.683594 1189.917969 3121.027344 1192.328125 3093.65625 C 1194.769531 3066.320312 1192.972656 2987.253906 1178.390625 2935.023438 C 1163.804688 2882.71875 1132.15625 2849.851562 1146.742188 2816.984375 C 1161.363281 2784.222656 1190.53125 2652.855469 1174.113281 2592.039062 C 1157.695312 2531.332031 1138.875 2502.089844 1138.875 2502.089844 C 1138.875 2502.089844 1168.617188 2465.59375 1206.949219 2393.246094 C 1245.277344 2320.933594 1258.027344 2288.640625 1276.277344 2276.496094 C 1294.492188 2264.355469 1314.570312 2248.585938 1322.472656 2229.726562 C 1330.375 2210.867188 1300.597656 2156.125 1352.25 2141.574219 C 1403.945312 2126.917969 1423.234375 2138.484375 1436.382812 2091.675781 C 1449.53125 2044.871094 1455.636719 1963.382812 1456.246094 1903.210938 C 1456.859375 1843.023438 1444.679688 1798.03125 1447.734375 1761.535156 C 1450.75 1725.058594 1443.457031 1704.402344 1462.316406 1653.929688 C 1481.140625 1603.460938 1477.515625 1550.566406 1483.585938 1530.503906 C 1489.691406 1510.4375 1496.371094 1497.058594 1509.738281 1475.175781 C 1523.097656 1453.269531 1528.558594 1443.558594 1528.558594 1419.242188 C 1528.558594 1394.925781 1538.90625 1320.113281 1545.585938 1352.351562 C 1552.269531 1384.589844 1552.269531 1400.390625 1562.613281 1413.15625 C 1572.957031 1425.921875 1576.621094 1435.039062 1579.0625 1453.890625 C 1581.472656 1472.742188 1570.515625 1494.027344 1593.039062 1490.996094 C 1615.527344 1487.941406 1627.703125 1506.792969 1648.972656 1476.394531 C 1670.269531 1445.992188 1680.003906 1433.84375 1680.003906 1433.84375 C 1680.003906 1433.84375 1721.890625 1481.261719 1718.910156 1507.402344 C 1715.855469 1533.539062 1695.777344 1574.273438 1693.367188 1613.804688 C 1690.925781 1653.320312 1687.871094 1692.242188 1670.847656 1698.921875 C 1653.855469 1705.605469 1628.925781 1708.640625 1595.480469 1718.984375 C 1562.039062 1729.332031 1536.496094 1743.917969 1524.929688 1760.960938 C 1513.363281 1777.953125 1520.082031 1779.175781 1510.3125 1793.144531 C 1500.609375 1807.140625 1496.984375 1825.980469 1513.363281 1825.386719 C 1529.777344 1824.796875 1541.347656 1818.707031 1541.347656 1818.707031 C 1541.347656 1818.707031 1566.851562 1798.03125 1552.269531 1815.042969 C 1537.683594 1832.085938 1541.347656 1840.582031 1544.363281 1843.023438 C 1547.453125 1845.449219 1555.933594 1853.351562 1557.152344 1859.40625 C 1558.375 1865.511719 1550.472656 1888.589844 1560.816406 1897.121094 C 1571.125 1905.636719 1570.515625 1901.378906 1577.199219 1915.375 C 1583.914062 1929.363281 1581.472656 1930.566406 1596.667969 1931.179688 C 1611.859375 1931.769531 1642.898438 1943.339844 1659.925781 1942.136719 C 1676.917969 1940.929688 1724.980469 1912.320312 1743.230469 1899.585938 C 1761.480469 1886.8125 1775.449219 1889.832031 1774.84375 1865.511719 C 1774.195312 1841.191406 1771.75 1827.21875 1786.410156 1802.289062 C 1800.957031 1777.359375 1808.25 1748.785156 1822.222656 1727.480469 C 1836.195312 1706.214844 1893.386719 1623.523438 1901.289062 1595.554688 C 1909.191406 1567.589844 1911.632812 1535.386719 1907.355469 1512.269531 Z M 145.375 1841.191406 C 145.375 1841.191406 141.746094 1842.414062 129.605469 1836.328125 C 117.425781 1830.253906 116.167969 1815.042969 122.277344 1812.597656 C 128.382812 1810.191406 146.59375 1809.5625 147.78125 1812.597656 C 149.003906 1815.652344 145.375 1841.191406 145.375 1841.191406 Z M 291.898438 3549.691406 C 304.691406 3561.832031 288.882812 3574.007812 277.316406 3569.125 C 265.75 3564.238281 272.433594 3530.253906 272.433594 3530.253906 C 272.433594 3530.253906 279.113281 3537.546875 291.898438 3549.691406" style="fill: inherit;"/></g></g></svg>